<?xml version="1.0" standalone="no"?>
<!DOCTYPE svg PUBLIC "-//W3C//DTD SVG 20010904//EN"
 "http://www.w3.org/TR/2001/REC-SVG-20010904/DTD/svg10.dtd">
<svg version="1.0" xmlns="http://www.w3.org/2000/svg"
 width="225.000000pt" height="225.000000pt" viewBox="0 0 225.000000 225.000000"
 preserveAspectRatio="xMidYMid meet">
<metadata>
Created by potrace 1.14, written by Peter Selinger 2001-2017
</metadata>
<g transform="translate(0.000000,225.000000) scale(0.100000,-0.100000)"
fill="#000000" stroke="none">
<path d="M943 2216 c-430 -82 -771 -397 -880 -814 -31 -120 -42 -318 -23 -443
62 -428 375 -784 793 -903 376 -108 782 -8 1069 262 379 358 454 941 177 1391
-63 102 -205 252 -304 320 -103 71 -245 137 -362 168 -122 31 -354 41 -470 19z
m469 -30 c316 -84 565 -288 708 -581 95 -194 132 -390 110 -590 -28 -267 -137
-491 -327 -676 -101 -99 -180 -154 -296 -209 -546 -260 -1197 -29 -1459 517
-70 145 -99 266 -105 433 -8 204 22 350 109 528 131 269 386 484 673 567 137
39 177 44 340 41 122 -3 168 -9 247 -30z"/>
<path d="M1021 2133 c-1 -62 16 -71 42 -20 12 25 16 27 17 12 0 -11 5 -27 10
-35 7 -11 10 0 10 38 0 63 -22 72 -41 15 l-12 -38 -13 40 -12 40 -1 -52z"/>
<path d="M1190 2130 c0 -27 5 -50 10 -50 6 0 10 9 10 20 0 13 7 20 20 20 13 0
20 -7 20 -20 0 -11 5 -20 10 -20 6 0 10 20 10 45 0 25 -4 45 -10 45 -5 0 -10
-7 -10 -15 0 -8 -9 -15 -20 -15 -13 0 -20 7 -20 20 0 11 -4 20 -10 20 -5 0
-10 -22 -10 -50z"/>
<path d="M950 2128 l-13 -43 -7 33 c-15 67 -28 42 -14 -27 9 -42 32 -39 40 4
8 43 24 46 24 5 0 -16 5 -30 11 -30 7 0 8 14 4 43 -12 72 -26 77 -45 15z"/>
<path d="M1302 2115 c-23 -48 -23 -52 9 -32 17 10 22 9 35 -7 19 -26 21 -20
16 37 -5 63 -30 64 -60 2z m34 -12 c-11 -11 -17 4 -9 23 7 18 8 18 11 1 2 -10
1 -21 -2 -24z"/>
<path d="M854 2125 c-7 -27 -24 -34 -24 -10 0 8 -4 15 -10 15 -13 0 -13 -4 2
-51 11 -39 35 -56 25 -19 -6 25 18 27 31 4 5 -9 15 -15 21 -13 8 3 4 13 -11
30 -18 20 -22 32 -17 48 5 12 4 21 -1 21 -5 0 -12 -11 -16 -25z"/>
<path d="M1397 2096 l-15 -45 34 -11 c20 -7 34 -18 34 -28 1 -15 2 -15 11 1 6
10 9 21 6 24 -3 2 1 22 8 44 8 21 10 41 5 44 -5 3 -15 -13 -21 -35 -9 -28 -17
-40 -28 -38 -17 4 -19 28 -7 66 4 12 3 22 -2 22 -6 0 -17 -20 -25 -44z"/>
<path d="M1518 2105 c-19 -31 -36 -85 -28 -90 11 -7 42 63 38 85 -2 8 -6 11
-10 5z"/>
<path d="M720 2088 c0 -7 8 -29 18 -49 15 -32 20 -36 40 -28 47 18 33 77 -15
64 -16 -4 -23 -1 -23 10 0 8 -4 15 -10 15 -5 0 -10 -6 -10 -12z m68 -45 c-5
-24 -25 -27 -31 -3 -4 15 0 20 15 20 13 0 18 -6 16 -17z"/>
<path d="M655 2060 c-15 -16 -17 -26 -9 -48 8 -22 16 -27 43 -27 20 0 36 6 39
14 3 10 0 11 -14 3 -24 -13 -54 2 -54 27 0 10 10 26 23 34 16 12 18 16 6 16
-9 1 -24 -8 -34 -19z"/>
<path d="M1546 2058 c-28 -40 -14 -78 29 -78 47 0 74 69 36 90 -30 16 -48 12
-65 -12z m62 -19 c5 -25 -27 -52 -44 -38 -17 14 -18 31 -2 47 16 16 42 11 46
-9z"/>
<path d="M978 2025 c-357 -68 -637 -326 -729 -675 -30 -110 -32 -327 -6 -434
79 -318 307 -564 617 -668 92 -31 100 -32 270 -33 205 0 250 9 407 85 236 115
394 300 478 560 37 114 46 314 20 441 -69 342 -333 622 -670 709 -106 28 -284
34 -387 15z m374 -24 c320 -83 547 -299 654 -621 26 -79 28 -97 29 -250 0
-143 -3 -176 -23 -243 -100 -348 -371 -595 -719 -657 -101 -18 -306 -8 -403
20 -306 88 -547 335 -631 645 -29 106 -32 325 -6 429 91 362 365 622 730 692
96 18 269 11 369 -15z"/>
<path d="M901 1796 c-16 -19 14 -45 31 -28 8 8 62 12 163 12 l151 0 42 -43
c34 -35 42 -50 42 -80 l0 -37 -55 0 -55 0 0 -97 0 -97 65 64 65 64 0 76 0 76
-43 42 -43 42 -161 0 c-97 0 -164 4 -168 10 -9 14 -20 13 -34 -4z m29 -11 c0
-8 -4 -15 -9 -15 -13 0 -22 16 -14 24 11 11 23 6 23 -9z"/>
<path d="M964 1733 l-211 -3 -102 -96 c-97 -92 -101 -97 -101 -138 0 -37 -6
-47 -55 -96 l-55 -54 0 -132 0 -131 79 -66 c57 -48 85 -65 97 -60 13 5 16 3
11 -10 -3 -9 -2 -17 3 -17 17 0 11 30 -7 37 -10 4 -51 33 -91 66 l-72 60 0
121 0 121 102 102 103 103 50 0 c44 0 55 5 95 40 l45 39 -95 1 -94 0 44 45 45
46 211 -3 c166 -2 210 0 207 10 -3 7 2 12 12 12 12 0 15 -5 10 -17 -5 -14 -3
-15 6 -6 13 13 4 34 -14 31 -7 -2 -107 -4 -223 -5z"/>
<path d="M1555 1721 c-75 -5 -96 -10 -122 -30 -31 -23 -33 -28 -33 -88 l0 -63
75 0 75 0 0 -44 c0 -40 -5 -49 -60 -104 l-60 -59 0 -135 0 -134 -44 -43 -43
-43 -149 3 c-147 3 -173 -3 -140 -30 10 -8 16 -9 21 -1 4 6 58 10 143 10 l138
0 47 48 47 48 0 135 0 134 108 108 108 108 70 -3 69 -3 3 -176 2 -176 -76 -75
c-42 -41 -74 -80 -70 -86 3 -5 40 25 81 67 l75 77 0 227 0 227 -200 0 c-191 0
-200 1 -200 19 0 11 14 29 30 41 27 19 41 21 128 19 86 -3 97 -1 98 14 2 14 1
14 -3 2 -5 -18 -29 -14 -25 4 1 6 1 10 0 9 -2 -1 -43 -4 -93 -7z m-477 -752
c-2 -6 -8 -10 -13 -10 -5 0 -11 4 -13 10 -2 6 4 11 13 11 9 0 15 -5 13 -11z"/>
<path d="M1120 1663 l-165 -3 -82 -83 c-76 -75 -83 -85 -83 -121 l0 -40 63 62
63 62 70 0 71 0 56 -59 57 -60 0 53 c0 49 -3 55 -48 99 -47 46 -49 47 -110 47
-43 0 -61 4 -57 11 5 7 66 10 183 8 119 -2 177 1 179 8 2 6 -1 14 -6 18 -7 3
-8 0 -5 -9 4 -11 0 -16 -11 -16 -11 0 -15 5 -11 15 3 8 4 14 3 13 -1 -1 -76
-4 -167 -5z"/>
<path d="M613 1428 l-63 -63 33 -34 32 -33 -37 4 -38 4 0 -97 0 -97 73 -61
c48 -40 78 -59 90 -55 11 4 17 0 17 -11 0 -12 -5 -15 -17 -10 -14 5 -15 3 -6
-6 6 -6 16 -8 22 -5 19 12 12 36 -12 45 -12 5 -51 32 -85 61 l-62 52 0 84 0
84 95 0 95 0 0 35 c0 33 -2 35 -35 35 l-34 0 -3 65 -3 66 -62 -63z"/>
<path d="M1040 1427 l0 -67 -35 0 -35 0 0 -133 0 -134 39 -31 c35 -28 45 -31
132 -35 52 -2 103 -6 114 -8 15 -3 20 1 20 16 0 15 -5 19 -20 16 -11 -2 -57
-6 -103 -8 l-83 -5 -45 37 -45 37 3 86 3 87 57 5 c45 4 63 11 87 34 17 17 31
35 31 41 0 6 -27 37 -60 70 l-60 59 0 -67z m230 -392 c0 -8 -4 -15 -9 -15 -13
0 -22 16 -14 24 11 11 23 6 23 -9z"/>
<path d="M852 1417 l-61 -62 -3 -230 c-2 -126 -1 -221 0 -211 2 9 9 15 15 13
9 -3 12 23 12 92 l0 96 58 3 57 3 0 174 c0 96 -4 176 -8 179 -5 3 -36 -23 -70
-57z"/>
<path d="M1252 1387 l-92 -92 0 -81 c0 -49 -5 -85 -12 -92 -9 -9 -9 -15 -1
-23 8 -8 11 -7 10 2 -1 8 3 14 8 14 6 0 9 -6 9 -13 -1 -7 1 -11 4 -7 3 3 5 47
3 98 -2 83 0 95 18 111 l21 19 0 -101 0 -100 65 -4 65 -3 0 183 c0 100 -1 182
-3 182 -1 0 -44 -42 -95 -93z"/>
<path d="M1612 1417 l-62 -63 0 -170 0 -170 -73 -72 -72 -72 -262 0 c-172 0
-264 4 -268 10 -8 13 -37 -8 -32 -23 2 -6 111 -9 287 -8 l285 2 78 77 77 77 0
58 0 59 55 -4 55 -3 0 183 c0 100 -1 182 -3 182 -1 0 -31 -28 -65 -63z m-732
-558 c0 -5 -7 -9 -15 -9 -15 0 -20 12 -9 23 8 8 24 -1 24 -14z"/>
<path d="M1635 1020 c-9 -15 4 -30 23 -29 15 1 14 2 -1 6 -11 3 -16 11 -13 19
6 16 0 19 -9 4z"/>
<path d="M748 759 c-24 -14 -23 -56 2 -69 28 -15 37 -6 32 31 -3 23 -1 30 7
25 7 -4 9 -16 6 -27 -4 -11 -2 -19 4 -19 19 0 12 49 -8 60 -23 12 -22 12 -43
-1z m12 -36 c0 -20 -3 -24 -11 -16 -7 7 -9 19 -6 27 10 24 17 19 17 -11z"/>
<path d="M861 739 c-15 -43 -14 -54 4 -39 12 10 19 10 27 2 22 -22 27 -12 14
25 -16 48 -31 52 -45 12z m25 -16 c-10 -10 -19 5 -10 18 6 11 8 11 12 0 2 -7
1 -15 -2 -18z"/>
<path d="M962 730 c0 -25 2 -37 5 -27 6 22 19 22 32 0 14 -26 25 -9 11 17 -9
16 -9 25 1 36 8 10 8 14 0 14 -6 0 -14 -7 -17 -15 -8 -20 -21 -19 -27 3 -3 9
-5 -3 -5 -28z"/>
<path d="M1060 768 c0 -4 5 -19 12 -33 10 -22 9 -28 -3 -36 -11 -7 -11 -9 4
-9 18 0 54 66 42 78 -3 3 -9 -4 -12 -17 l-6 -24 -18 24 c-10 13 -19 21 -19 17z"/>
<path d="M1167 751 c3 -10 -1 -29 -7 -41 -10 -18 -9 -21 2 -18 7 3 14 19 16
36 4 43 22 41 22 -3 0 -19 5 -35 10 -35 6 0 10 18 10 40 0 37 -2 40 -29 40
-24 0 -28 -4 -24 -19z"/>
<path d="M1260 730 c0 -38 2 -40 30 -40 24 0 30 4 30 21 0 12 -8 23 -20 26
-11 3 -20 12 -20 19 0 8 -4 14 -10 14 -5 0 -10 -18 -10 -40z m42 -15 c0 -5 -5
-11 -11 -13 -6 -2 -11 4 -11 13 0 9 5 15 11 13 6 -2 11 -8 11 -13z"/>
<path d="M1358 763 c6 -2 12 -20 12 -39 0 -19 5 -34 10 -34 6 0 10 15 10 34 0
19 6 37 13 39 6 3 -4 5 -23 5 -19 0 -29 -2 -22 -5z"/>
<path d="M1450 730 c0 -37 2 -40 28 -39 23 2 24 2 5 6 -26 5 -31 23 -8 23 21
0 19 18 -2 23 -15 3 -14 6 7 15 l25 11 -27 0 c-26 1 -28 -2 -28 -39z"/>
<path d="M1542 758 c9 -7 19 -26 21 -43 l4 -30 2 32 c0 19 8 36 19 42 14 8 9
10 -22 11 -34 0 -37 -2 -24 -12z"/>
<path d="M483 580 c0 -25 2 -35 4 -22 2 12 2 32 0 45 -2 12 -4 2 -4 -23z"/>
<path d="M542 580 c0 -25 2 -37 5 -27 5 21 43 23 43 2 0 -8 5 -15 10 -15 6 0
10 18 10 40 0 22 -4 40 -10 40 -5 0 -10 -7 -10 -15 0 -21 -38 -19 -43 3 -3 9
-5 -3 -5 -28z"/>
<path d="M668 609 c-44 -25 -3 -93 42 -69 26 14 26 56 1 70 -23 12 -22 12 -43
-1z m12 -36 c0 -20 -3 -24 -11 -16 -7 7 -9 19 -6 27 10 24 17 19 17 -11z m31
-10 c-9 -16 -10 -14 -11 12 0 21 3 26 11 18 8 -8 8 -16 0 -30z"/>
<path d="M782 608 c-17 -17 -15 -55 4 -66 25 -14 53 -3 60 24 11 42 -34 72
-64 42z m43 -29 c0 -15 -7 -25 -17 -27 -13 -3 -18 3 -18 21 0 13 3 27 7 31 13
12 28 -1 28 -25z"/>
<path d="M890 580 c0 -22 5 -40 11 -40 5 0 7 5 4 10 -3 6 5 14 19 20 14 5 26
13 26 18 0 14 -23 32 -42 32 -14 0 -18 -8 -18 -40z m40 9 c0 -5 -7 -9 -15 -9
-15 0 -20 12 -9 23 8 8 24 -1 24 -14z"/>
<path d="M990 597 c0 -14 -3 -32 -6 -41 -3 -9 -1 -16 5 -16 6 0 11 12 12 28
l1 27 10 -27 c5 -16 13 -28 18 -28 4 0 11 12 16 28 l7 27 7 -30 c7 -28 8 -27
9 13 1 48 -14 55 -31 15 l-11 -28 -6 24 c-9 34 -31 39 -31 8z"/>
<path d="M1129 593 c-5 -16 -12 -34 -14 -40 -2 -7 0 -13 5 -13 6 0 10 5 10 10
0 14 28 12 33 -2 2 -7 8 -10 12 -6 9 9 -14 78 -26 78 -5 0 -14 -12 -20 -27z
m25 -8 c3 -8 1 -15 -4 -15 -6 0 -10 7 -10 15 0 8 2 15 4 15 2 0 6 -7 10 -15z"/>
<path d="M1220 580 c0 -38 2 -40 29 -40 16 0 31 -6 34 -12 9 -27 15 -1 10 45
-6 55 -23 64 -23 12 0 -24 -5 -35 -15 -35 -10 0 -15 11 -15 35 0 19 -4 35 -10
35 -5 0 -10 -18 -10 -40z"/>
<path d="M1343 580 c0 -25 2 -35 4 -22 2 12 2 32 0 45 -2 12 -4 2 -4 -23z"/>
<path d="M1401 583 c-1 -49 13 -56 32 -16 l12 27 6 -30 c6 -25 7 -23 8 15 1
37 -1 42 -14 31 -8 -6 -18 -22 -22 -33 -6 -19 -8 -18 -14 13 l-6 35 -2 -42z"/>
<path d="M1510 580 c0 -22 5 -40 10 -40 6 0 10 7 10 15 0 8 7 15 15 15 8 0 15
-7 15 -15 0 -8 5 -15 10 -15 6 0 10 18 10 40 0 22 -4 40 -10 40 -5 0 -10 -7
-10 -15 0 -8 -7 -15 -15 -15 -8 0 -15 7 -15 15 0 8 -4 15 -10 15 -5 0 -10 -18
-10 -40z"/>
<path d="M1620 580 c0 -45 20 -54 38 -17 l11 22 0 -22 c2 -41 21 -24 21 17 0
48 -14 51 -35 10 -9 -16 -17 -30 -19 -30 -1 0 -1 14 2 30 3 18 0 30 -7 30 -6
0 -11 -17 -11 -40z"/>
<path d="M1740 600 c8 -14 8 -26 0 -40 -6 -12 -7 -20 -1 -20 5 0 12 6 14 13 4
9 8 8 16 -3 5 -8 13 -11 17 -7 4 3 2 12 -4 20 -7 8 -7 18 -2 27 13 20 12 30 0
30 -5 0 -10 -8 -10 -17 -1 -17 -1 -17 -14 0 -18 23 -29 22 -16 -3z"/>
<path d="M1590 476 c7 -7 13 -7 20 0 6 6 3 10 -10 10 -13 0 -16 -4 -10 -10z"/>
<path d="M680 460 c0 -5 5 -10 10 -10 6 0 10 -16 10 -36 0 -21 4 -33 10 -29 6
3 10 19 10 36 0 16 5 29 10 29 6 0 10 5 10 10 0 6 -13 10 -30 10 -16 0 -30 -4
-30 -10z"/>
<path d="M780 431 c0 -33 3 -39 25 -43 14 -3 25 -1 25 3 0 5 -9 9 -20 9 -28 0
-25 20 3 21 l22 0 -23 10 c-13 5 -20 13 -17 19 4 6 10 8 15 5 5 -3 11 -1 15 5
4 6 -5 10 -19 10 -23 0 -26 -4 -26 -39z"/>
<path d="M870 463 c0 -5 4 -15 9 -22 6 -9 6 -22 0 -33 -6 -12 -6 -18 1 -18 5
0 10 5 10 12 0 9 3 9 12 0 19 -19 30 -14 18 9 -9 15 -8 24 1 35 6 8 9 18 5 21
-4 4 -12 1 -17 -7 -8 -11 -12 -12 -16 -2 -5 13 -23 17 -23 5z"/>
<path d="M970 430 c0 -22 5 -40 10 -40 6 0 10 7 10 15 0 8 7 15 15 15 8 0 15
-7 15 -15 0 -8 5 -15 10 -15 6 0 10 18 10 40 0 22 -4 40 -10 40 -5 0 -10 -9
-10 -20 0 -11 -7 -20 -15 -20 -8 0 -15 9 -15 20 0 11 -4 20 -10 20 -5 0 -10
-18 -10 -40z"/>
<path d="M1092 458 c-18 -18 -14 -56 7 -68 26 -14 50 -3 57 26 11 42 -34 72
-64 42z m43 -29 c0 -15 -7 -25 -17 -27 -13 -3 -18 3 -18 21 0 13 3 27 7 31 13
12 28 -1 28 -25z"/>
<path d="M1206 443 c-4 -16 -10 -37 -13 -48 -5 -17 -4 -18 11 -6 9 7 16 24 16
37 0 12 5 26 10 29 6 4 10 -8 10 -29 0 -19 5 -38 10 -41 6 -4 10 12 10 39 0
42 -2 46 -24 46 -18 0 -25 -7 -30 -27z"/>
<path d="M1312 458 c-18 -18 -14 -56 7 -68 26 -14 50 -3 57 26 11 42 -34 72
-64 42z m43 -29 c0 -15 -7 -25 -17 -27 -13 -3 -18 3 -18 21 0 13 3 27 7 31 13
12 28 -1 28 -25z"/>
<path d="M1420 423 c1 -38 3 -44 11 -30 6 9 9 27 7 40 -2 12 2 22 9 22 6 0 15
3 19 8 4 4 -5 7 -19 7 -26 0 -27 -3 -27 -47z"/>
<path d="M1513 425 c0 -27 2 -38 4 -22 2 15 2 37 0 50 -2 12 -4 0 -4 -28z"/>
<path d="M1571 433 c-1 -49 13 -56 32 -16 l12 27 6 -30 c6 -25 7 -23 8 15 1
37 -1 42 -14 31 -8 -6 -18 -22 -22 -33 -6 -19 -8 -18 -14 13 l-6 35 -2 -42z"/>
<path d="M567 2016 c-17 -13 -17 -16 -2 -46 9 -18 14 -38 12 -45 -5 -13 10
-35 25 -35 4 0 5 6 2 14 -7 19 40 48 55 33 26 -26 9 12 -19 41 -16 18 -30 36
-30 42 0 14 -22 12 -43 -4z m50 -59 c-2 -6 -8 -12 -13 -14 -11 -4 -35 53 -26
62 9 8 44 -35 39 -48z"/>
<path d="M1640 1994 c-22 -35 -19 -63 4 -32 18 24 50 5 36 -22 -21 -40 7 -26
33 16 19 31 23 44 13 44 -8 0 -16 -5 -18 -12 -3 -7 -12 -9 -22 -5 -12 5 -15
13 -11 27 10 32 -12 23 -35 -16z"/>
<path d="M472 1948 c-18 -18 -15 -52 6 -71 25 -23 45 -21 68 4 17 19 17 23 3
47 -16 30 -57 40 -77 20z m62 -30 c8 -13 7 -21 -2 -30 -17 -17 -46 1 -50 31
-3 18 1 22 19 19 12 -2 27 -11 33 -20z"/>
<path d="M1738 1933 c-21 -14 -35 -30 -32 -35 3 -5 11 -5 19 2 9 7 16 6 24 -3
6 -8 8 -17 4 -20 -7 -8 26 -47 40 -47 5 0 22 9 39 21 40 29 48 16 13 -21 -40
-42 -22 -51 20 -10 l35 34 -22 23 -22 23 -26 -25 c-23 -22 -60 -34 -60 -20 0
3 7 22 15 42 15 36 14 64 -2 62 -4 0 -25 -12 -45 -26z m36 -17 c-3 -9 -10 -13
-16 -10 -5 3 -4 12 3 20 15 18 22 13 13 -10z"/>
<path d="M392 1878 c-17 -17 -16 -20 18 -58 28 -31 57 -37 31 -6 -8 10 -9 16
-1 21 5 3 10 17 10 31 0 18 -5 24 -23 24 -13 0 -28 -5 -35 -12z m44 -9 c10
-17 -13 -36 -27 -22 -12 12 -4 33 11 33 5 0 12 -5 16 -11z"/>
<path d="M1882 1799 c-33 -29 -33 -31 -16 -50 34 -38 82 -11 56 32 -7 11 -8
20 -2 24 12 7 13 25 3 25 -5 0 -23 -14 -41 -31z m28 -34 c0 -8 -6 -15 -14 -15
-17 0 -28 14 -19 24 12 12 33 6 33 -9z"/>
<path d="M326 1804 c-21 -21 -20 -40 4 -64 37 -37 80 -20 80 32 0 43 -53 64
-84 32z m59 -20 c20 -20 15 -38 -12 -42 -24 -4 -47 22 -39 43 7 20 30 19 51
-1z"/>
<path d="M1948 1732 c-43 -31 -48 -45 -14 -36 31 8 43 -12 20 -37 -23 -26 -2
-24 41 4 40 26 46 42 11 33 -29 -7 -43 9 -26 29 24 29 4 33 -32 7z"/>
<path d="M269 1728 c-10 -18 -8 -24 12 -40 39 -30 57 -39 63 -29 4 5 -10 19
-29 31 -29 18 -33 25 -25 41 7 12 7 19 1 19 -6 0 -15 -10 -22 -22z"/>
<path d="M234 1668 c3 -10 9 -26 13 -35 6 -16 5 -16 -10 -4 -10 8 -21 11 -25
7 -4 -4 2 -14 12 -22 19 -13 19 -14 -6 -14 -15 0 -30 -5 -34 -11 -4 -7 2 -9
17 -7 18 2 29 -5 43 -27 12 -19 21 -25 24 -17 2 8 -1 19 -7 25 -19 19 -12 29
14 23 27 -7 35 8 10 18 -25 9 -17 29 10 24 14 -3 25 -2 25 3 0 9 -33 21 -48
17 -6 -2 -18 6 -27 17 -14 16 -16 17 -11 3z"/>
<path d="M1998 1636 c-47 -28 -38 -52 16 -43 45 7 45 2 4 -19 -18 -10 -28 -19
-21 -21 17 -6 95 36 88 47 -4 6 -25 10 -48 10 l-42 1 28 15 c15 8 27 19 27 24
0 14 -10 11 -52 -14z"/>
<path d="M170 1551 c0 -7 10 -21 23 -32 l22 -18 -37 -1 c-21 0 -38 -4 -38 -8
0 -5 19 -8 43 -8 29 1 41 -3 40 -11 -2 -7 2 -13 7 -13 22 0 8 38 -25 70 -19
19 -35 28 -35 21z"/>
<path d="M2047 1543 c-46 -20 -43 -36 9 -44 l39 -5 -33 -15 c-47 -22 -28 -30
24 -11 54 20 52 35 -7 42 l-44 5 37 14 c20 8 35 18 32 23 -7 10 -11 9 -57 -9z"/>
<path d="M2120 1545 c0 -5 5 -17 10 -25 5 -8 10 -10 10 -5 0 6 -5 17 -10 25
-5 8 -10 11 -10 5z"/>
<path d="M658 253 c-2 -29 -8 -48 -15 -49 -26 -3 -28 -5 -14 -13 9 -6 23 -6
35 1 33 17 76 60 70 70 -4 5 -17 -1 -30 -13 l-24 -22 0 31 c0 51 -19 47 -22
-5z"/>
<path d="M1568 274 c-21 -13 -38 -22 -38 -19 0 3 -13 -1 -30 -10 -32 -16 -31
-10 0 -90 8 -22 12 -23 40 -14 36 13 41 32 5 23 -30 -7 -34 11 -7 33 15 13 15
14 -10 8 -43 -9 -35 20 10 38 l37 15 19 -36 c23 -46 23 -45 35 -38 6 4 2 20
-11 42 -15 26 -18 38 -9 47 13 13 15 27 4 26 -5 0 -25 -11 -45 -25z"/>
<path d="M736 207 c-9 -23 -16 -48 -16 -55 0 -20 17 -14 23 9 9 33 43 20 40
-15 -3 -41 17 -27 37 27 15 38 16 47 4 47 -8 0 -14 -7 -14 -15 0 -16 -9 -19
-34 -9 -11 4 -14 13 -10 30 10 41 -12 26 -30 -19z"/>
<path d="M1440 222 c-8 -3 -26 -9 -40 -14 -25 -10 -25 -10 -3 -19 15 -5 24
-20 29 -43 3 -20 12 -36 20 -36 11 0 11 7 0 43 -12 39 -11 45 3 54 19 12 13
23 -9 15z"/>
<path d="M846 163 c-9 -27 -12 -51 -7 -56 5 -5 15 11 25 39 18 55 19 64 7 64
-5 0 -16 -21 -25 -47z"/>
<path d="M892 148 c-5 -29 -9 -54 -9 -55 1 -1 13 -4 27 -8 32 -8 71 18 53 36
-9 9 -9 16 0 30 14 22 4 35 -34 44 -25 6 -27 4 -37 -47z m58 17 c0 -8 -7 -15
-15 -15 -8 0 -15 7 -15 15 0 8 7 15 15 15 8 0 15 -7 15 -15z m-10 -51 c0 -8
-7 -14 -15 -14 -8 0 -15 9 -15 20 0 13 5 18 15 14 8 -4 15 -12 15 -20z"/>
<path d="M1329 154 c-12 -46 -29 -45 -29 4 0 12 -5 22 -11 22 -11 0 -4 -83 8
-103 8 -14 31 13 38 44 8 34 25 29 25 -7 0 -13 5 -24 11 -24 11 0 4 83 -8 103
-11 18 -24 4 -34 -39z"/>
<path d="M996 149 c-14 -69 -9 -79 32 -78 37 1 37 1 9 11 -32 11 -31 34 2 31
11 -2 21 2 21 7 0 6 -9 10 -20 10 -11 0 -20 7 -20 15 0 9 10 15 26 15 14 0 23
4 19 10 -3 6 -19 10 -34 10 -24 0 -30 -5 -35 -31z"/>
<path d="M1197 162 c-20 -22 -22 -63 -5 -80 14 -14 82 -16 73 -2 -3 5 -12 7
-19 4 -15 -6 -46 21 -46 40 0 18 21 36 42 36 10 0 18 5 18 10 0 17 -46 11 -63
-8z"/>
<path d="M1080 116 c0 -43 3 -56 15 -56 8 0 15 8 15 18 0 9 10 22 23 27 14 7
22 19 22 35 0 22 -5 25 -37 28 l-38 3 0 -55z m55 24 c0 -7 -6 -15 -12 -17 -8
-3 -13 4 -13 17 0 13 5 20 13 18 6 -3 12 -11 12 -18z"/>
</g>
</svg>
